<svg width="67" height="30" viewBox="0 0 67 30" fill="none" xmlns="http://www.w3.org/2000/svg">
<rect width="66.75" height="30" rx="15" fill="#E42C17"/>
<circle cx="22.5" cy="15" r="11.25" fill="white"/>
<g clip-path="url(#clip0_5_25)">
<path d="M51.4118 15.3409L56.529 10.2237C57.157 9.59571 57.157 8.57759 56.529 7.94912L55.3918 6.81185C54.7638 6.18389 53.7457 6.18389 53.1172 6.81185L48 11.9291L42.8828 6.81185C42.2548 6.18389 41.2367 6.18389 40.6082 6.81185L39.471 7.94912C38.843 8.57707 38.843 9.5952 39.471 10.2237L44.5882 15.3409L39.471 20.4581C38.843 21.0861 38.843 22.1042 39.471 22.7326L40.6082 23.8699C41.2362 24.4979 42.2548 24.4979 42.8828 23.8699L48 18.7527L53.1172 23.8699C53.7452 24.4979 54.7638 24.4979 55.3918 23.8699L56.529 22.7326C57.157 22.1047 57.157 21.0866 56.529 20.4581L51.4118 15.3409Z" fill="white"/>
</g>
<defs>
<clipPath id="clip0_5_25">
<rect width="18" height="26.1818" fill="white" transform="translate(39 2.25)"/>
</clipPath>
</defs>
</svg>
